<svg width="139" height="80" viewBox="0 0 139 80" version="1.1" xmlns="http://www.w3.org/2000/svg" xmlns:xlink="http://www.w3.org/1999/xlink">
<defs>
	<path id="path-1" d="M.055 9.875l16.95 9.875 16.951-9.875L17.006 0z"/>
</defs>
	<g id="Page-1" stroke="none" stroke-width="1" fill="none" fill-rule="evenodd">
	<g id="symbol-white">
	<g id="Page-1">
	<path id="Fill-1" fill="#FFF" d="M34.703 0L0 20l.017 40 34.704 20 34.703-20V40L52.073 30 34.72 40l17.352 10L34.72 60 17.369 50l-.017-20 34.703-20L34.704 0z"/>
	<path id="Fill-2" fill="#FFF" d="M104.11 0L69.407 20l.017 40 34.704 20 34.703-20V40L121.48 30l-17.351 10 17.351 10-17.351 10-17.352-10-.017-20 34.703-20L104.11 0z"/>
	<g id="Path-2" transform="translate(52 40)">
	<mask id="mask-2" fill="#fff">
	<use xlink:href="#path-1"/>
	</mask>
	<use id="Mask" fill="#EB1F32" xlink:href="#path-1"/>
	<path fill="#1353FF" mask="url(#mask-2)" d="M0 19.75L34.597 0v19.75z"/>
	</g>
	</g>
	</g>
	</g>
</svg>